<?xml version="1.0" encoding="UTF-8" standalone="no"?>
<svg
   xmlns:dc="http://purl.org/dc/elements/1.1/"
   xmlns:cc="http://creativecommons.org/ns#"
   xmlns:rdf="http://www.w3.org/1999/02/22-rdf-syntax-ns#"
   xmlns:svg="http://www.w3.org/2000/svg"
   xmlns="http://www.w3.org/2000/svg"
   id="svg49"
   version="1.2"
   viewBox="0 0 182.35 69.62"
   height="69.62pt"
   width="182.35pt">
  <metadata
     id="metadata55">
    <rdf:RDF>
      <cc:Work
         rdf:about="">
        <dc:format>image/svg+xml</dc:format>
        <dc:type
           rdf:resource="http://purl.org/dc/dcmitype/StillImage" />
        <dc:title></dc:title>
      </cc:Work>
    </rdf:RDF>
  </metadata>
  <defs
     id="defs53" />
  <g
     id="surface2448">
    <path
       id="path2"
       d="M 175.421875 28.902344 C 175.421875 30.242188 174.332031 31.328125 172.992188 31.328125 L 148.996094 31.328125 C 148.996094 31.328125 148.996094 51.277344 148.996094 58.777344 C 142.207031 54.027344 137.652344 45.429688 136.257812 34.363281 L 135.871094 31.328125 L 9.363281 31.328125 C 8.023438 31.328125 6.933594 30.242188 6.933594 28.902344 L 6.933594 9.363281 C 6.933594 8.023438 8.023438 6.9375 9.363281 6.9375 L 172.992188 6.9375 C 174.332031 6.9375 175.421875 8.023438 175.421875 9.363281 Z M 172.992188 0.00390625 L 9.363281 0.00390625 C 4.199219 0.00390625 0 4.203125 0 9.363281 L 0 28.902344 C 0 34.0625 4.199219 38.261719 9.363281 38.261719 C 9.363281 38.261719 124.324219 38.261719 129.84375 38.261719 C 132.445312 52.789062 140.121094 63.457031 151.203125 67.777344 L 155.929688 69.621094 C 155.929688 69.621094 155.929688 43.675781 155.929688 38.261719 C 160.71875 38.261719 172.992188 38.261719 172.992188 38.261719 C 178.152344 38.261719 182.351562 34.0625 182.351562 28.902344 L 182.351562 9.363281 C 182.351562 4.203125 178.152344 0.00390625 172.992188 0.00390625 "
       style=" stroke:none;fill-rule:nonzero;fill:rgb(96.183777%,59.115601%,5.870056%);fill-opacity:1;" />
    <path
       id="path4"
       d="M 14.878906 23.191406 L 14.878906 15.003906 L 16.890625 15.003906 L 16.890625 23.191406 L 14.878906 23.191406 "
       style=" stroke:none;fill-rule:nonzero;fill:rgb(96.183777%,59.115601%,5.870056%);fill-opacity:1;" />
    <path
       id="path6"
       d="M 23.34375 23.191406 L 21.457031 19.835938 L 20.769531 20.628906 L 20.769531 23.191406 L 18.777344 23.191406 L 18.777344 15.003906 L 20.769531 15.003906 L 20.769531 17.902344 L 23.136719 15.003906 L 25.597656 15.003906 L 22.804688 18.316406 L 25.691406 23.191406 L 23.34375 23.191406 "
       style=" stroke:none;fill-rule:nonzero;fill:rgb(96.183777%,59.115601%,5.870056%);fill-opacity:1;" />
    <path
       id="path8"
       d="M 29.703125 23.261719 C 28 23.261719 26.609375 22.113281 26.609375 20.316406 L 26.609375 15.003906 L 28.621094 15.003906 L 28.621094 20.273438 C 28.621094 21.03125 29.035156 21.46875 29.703125 21.46875 C 30.371094 21.46875 30.808594 21.03125 30.808594 20.273438 L 30.808594 15.003906 L 32.820312 15.003906 L 32.820312 20.316406 C 32.820312 22.113281 31.40625 23.261719 29.703125 23.261719 "
       style=" stroke:none;fill-rule:nonzero;fill:rgb(96.183777%,59.115601%,5.870056%);fill-opacity:1;" />
    <path
       id="path10"
       d="M 33.738281 25.332031 L 33.738281 24.089844 L 41.097656 24.089844 L 41.097656 25.332031 L 33.738281 25.332031 "
       style=" stroke:none;fill-rule:nonzero;fill:rgb(96.183777%,59.115601%,5.870056%);fill-opacity:1;" />
    <path
       id="path12"
       d="M 46.019531 17.257812 C 45.835938 16.984375 45.5625 16.800781 45.054688 16.800781 L 44.167969 16.800781 L 44.167969 21.398438 L 45.054688 21.398438 C 45.5625 21.398438 45.835938 21.214844 46.019531 20.9375 C 46.183594 20.710938 46.238281 20.492188 46.238281 19.097656 C 46.238281 17.71875 46.183594 17.488281 46.019531 17.257812 Z M 47.402344 22.386719 C 46.839844 22.953125 46.042969 23.191406 45.195312 23.191406 L 42.15625 23.191406 L 42.15625 15.003906 L 45.195312 15.003906 C 46.042969 15.003906 46.839844 15.246094 47.402344 15.808594 C 48.355469 16.765625 48.253906 17.8125 48.253906 19.097656 C 48.253906 20.386719 48.355469 21.433594 47.402344 22.386719 "
       style=" stroke:none;fill-rule:nonzero;fill:rgb(96.183777%,59.115601%,5.870056%);fill-opacity:1;" />
    <path
       id="path14"
       d="M 49.875 23.191406 L 49.875 15.003906 L 51.886719 15.003906 L 51.886719 23.191406 L 49.875 23.191406 "
       style=" stroke:none;fill-rule:nonzero;fill:rgb(96.183777%,59.115601%,5.870056%);fill-opacity:1;" />
    <path
       id="path16"
       d="M 53.773438 23.191406 L 53.773438 15.003906 L 59.339844 15.003906 L 59.339844 16.800781 L 55.785156 16.800781 L 55.785156 18.167969 L 58.820312 18.167969 L 58.820312 19.960938 L 55.785156 19.960938 L 55.785156 21.398438 L 59.339844 21.398438 L 59.339844 23.191406 L 53.773438 23.191406 "
       style=" stroke:none;fill-rule:nonzero;fill:rgb(96.183777%,59.115601%,5.870056%);fill-opacity:1;" />
    <path
       id="path18"
       d="M 67.640625 17.257812 C 67.457031 16.984375 67.179688 16.800781 66.671875 16.800781 L 65.789062 16.800781 L 65.789062 21.398438 L 66.671875 21.398438 C 67.179688 21.398438 67.457031 21.214844 67.640625 20.9375 C 67.800781 20.710938 67.859375 20.492188 67.859375 19.097656 C 67.859375 17.71875 67.800781 17.488281 67.640625 17.257812 Z M 69.019531 22.386719 C 68.457031 22.953125 67.664062 23.191406 66.8125 23.191406 L 63.777344 23.191406 L 63.777344 15.003906 L 66.8125 15.003906 C 67.664062 15.003906 68.457031 15.246094 69.019531 15.808594 C 69.972656 16.765625 69.871094 17.8125 69.871094 19.097656 C 69.871094 20.386719 69.972656 21.433594 69.019531 22.386719 "
       style=" stroke:none;fill-rule:nonzero;fill:rgb(96.183777%,59.115601%,5.870056%);fill-opacity:1;" />
    <path
       id="path20"
       d="M 71.492188 23.191406 L 71.492188 15.003906 L 73.507812 15.003906 L 73.507812 23.191406 L 71.492188 23.191406 "
       style=" stroke:none;fill-rule:nonzero;fill:rgb(96.183777%,59.115601%,5.870056%);fill-opacity:1;" />
    <path
       id="path22"
       d="M 78.371094 18.109375 L 77.632812 20.296875 L 79.058594 20.296875 Z M 79.96875 23.191406 L 79.589844 21.972656 L 77.070312 21.972656 L 76.667969 23.191406 L 74.5625 23.191406 L 77.542969 15.003906 L 79.09375 15.003906 L 82.074219 23.191406 L 79.96875 23.191406 "
       style=" stroke:none;fill-rule:nonzero;fill:rgb(96.183777%,59.115601%,5.870056%);fill-opacity:1;" />
    <path
       id="path24"
       d="M 83.132812 23.191406 L 83.132812 15.003906 L 85.144531 15.003906 L 85.144531 21.398438 L 88.582031 21.398438 L 88.582031 23.191406 L 83.132812 23.191406 "
       style=" stroke:none;fill-rule:nonzero;fill:rgb(96.183777%,59.115601%,5.870056%);fill-opacity:1;" />
    <path
       id="path26"
       d="M 93.410156 17.085938 C 93.261719 16.890625 92.972656 16.730469 92.605469 16.730469 C 92.238281 16.730469 91.953125 16.890625 91.800781 17.085938 C 91.617188 17.328125 91.503906 17.605469 91.503906 19.097656 C 91.503906 20.59375 91.617188 20.859375 91.800781 21.101562 C 91.953125 21.296875 92.238281 21.46875 92.605469 21.46875 C 92.972656 21.46875 93.261719 21.296875 93.410156 21.101562 C 93.59375 20.859375 93.710938 20.59375 93.710938 19.097656 C 93.710938 17.605469 93.59375 17.328125 93.410156 17.085938 Z M 94.894531 22.34375 C 94.296875 22.941406 93.605469 23.261719 92.605469 23.261719 C 91.605469 23.261719 90.914062 22.941406 90.320312 22.34375 C 89.457031 21.480469 89.488281 20.328125 89.488281 19.097656 C 89.488281 17.867188 89.457031 16.71875 90.320312 15.855469 C 90.914062 15.257812 91.605469 14.9375 92.605469 14.9375 C 93.605469 14.9375 94.296875 15.257812 94.894531 15.855469 C 95.757812 16.71875 95.722656 17.867188 95.722656 19.097656 C 95.722656 20.328125 95.757812 21.480469 94.894531 22.34375 "
       style=" stroke:none;fill-rule:nonzero;fill:rgb(96.183777%,59.115601%,5.870056%);fill-opacity:1;" />
    <path
       id="path28"
       d="M 102.566406 22.34375 C 101.863281 23.066406 101.082031 23.261719 100.1875 23.261719 C 99.230469 23.261719 98.507812 22.941406 97.90625 22.34375 C 97.046875 21.480469 97.082031 20.328125 97.082031 19.097656 C 97.082031 17.867188 97.046875 16.71875 97.90625 15.855469 C 98.507812 15.257812 99.195312 14.9375 100.1875 14.9375 C 102.289062 14.9375 103.1875 16.304688 103.382812 17.652344 L 101.359375 17.652344 C 101.195312 17.03125 100.875 16.730469 100.1875 16.730469 C 99.816406 16.730469 99.539062 16.890625 99.390625 17.085938 C 99.207031 17.328125 99.09375 17.605469 99.09375 19.097656 C 99.09375 20.59375 99.207031 20.882812 99.390625 21.125 C 99.539062 21.320312 99.816406 21.46875 100.1875 21.46875 C 100.609375 21.46875 100.898438 21.34375 101.082031 21.148438 C 101.3125 20.917969 101.394531 20.582031 101.394531 20.273438 L 101.394531 20.15625 L 100.1875 20.15625 L 100.1875 18.476562 L 103.394531 18.476562 L 103.394531 19.617188 C 103.394531 20.9375 103.1875 21.710938 102.566406 22.34375 "
       style=" stroke:none;fill-rule:nonzero;fill:rgb(96.183777%,59.115601%,5.870056%);fill-opacity:1;" />
    <path
       id="path30"
       d="M 110.234375 22.34375 C 109.535156 23.066406 108.753906 23.261719 107.855469 23.261719 C 106.898438 23.261719 106.175781 22.941406 105.578125 22.34375 C 104.714844 21.480469 104.75 20.328125 104.75 19.097656 C 104.75 17.867188 104.714844 16.71875 105.578125 15.855469 C 106.175781 15.257812 106.867188 14.9375 107.855469 14.9375 C 109.960938 14.9375 110.855469 16.304688 111.050781 17.652344 L 109.027344 17.652344 C 108.867188 17.03125 108.546875 16.730469 107.855469 16.730469 C 107.488281 16.730469 107.210938 16.890625 107.0625 17.085938 C 106.878906 17.328125 106.761719 17.605469 106.761719 19.097656 C 106.761719 20.59375 106.878906 20.882812 107.0625 21.125 C 107.210938 21.320312 107.488281 21.46875 107.855469 21.46875 C 108.28125 21.46875 108.566406 21.34375 108.753906 21.148438 C 108.980469 20.917969 109.0625 20.582031 109.0625 20.273438 L 109.0625 20.15625 L 107.855469 20.15625 L 107.855469 18.476562 L 111.0625 18.476562 L 111.0625 19.617188 C 111.0625 20.9375 110.855469 21.710938 110.234375 22.34375 "
       style=" stroke:none;fill-rule:nonzero;fill:rgb(96.183777%,59.115601%,5.870056%);fill-opacity:1;" />
    <path
       id="path32"
       d="M 112.6875 23.191406 L 112.6875 15.003906 L 118.253906 15.003906 L 118.253906 16.800781 L 114.699219 16.800781 L 114.699219 18.167969 L 117.734375 18.167969 L 117.734375 19.960938 L 114.699219 19.960938 L 114.699219 21.398438 L 118.253906 21.398438 L 118.253906 23.191406 L 112.6875 23.191406 "
       style=" stroke:none;fill-rule:nonzero;fill:rgb(96.183777%,59.115601%,5.870056%);fill-opacity:1;" />
    <path
       id="path34"
       d="M 122.242188 23.261719 C 120.988281 23.261719 119.964844 23.03125 119.136719 22.179688 L 120.425781 20.894531 C 120.851562 21.320312 121.597656 21.46875 122.253906 21.46875 C 123.046875 21.46875 123.425781 21.203125 123.425781 20.730469 C 123.425781 20.535156 123.378906 20.375 123.265625 20.25 C 123.160156 20.144531 122.988281 20.066406 122.726562 20.03125 L 121.734375 19.890625 C 121.011719 19.789062 120.460938 19.546875 120.089844 19.167969 C 119.710938 18.777344 119.527344 18.226562 119.527344 17.523438 C 119.527344 16.027344 120.652344 14.9375 122.519531 14.9375 C 123.691406 14.9375 124.574219 15.210938 125.277344 15.914062 L 124.011719 17.179688 C 123.496094 16.660156 122.816406 16.695312 122.460938 16.695312 C 121.757812 16.695312 121.472656 17.097656 121.472656 17.453125 C 121.472656 17.558594 121.507812 17.707031 121.632812 17.835938 C 121.734375 17.9375 121.90625 18.042969 122.195312 18.074219 L 123.183594 18.214844 C 123.921875 18.316406 124.449219 18.546875 124.796875 18.890625 C 125.230469 19.316406 125.402344 19.925781 125.402344 20.6875 C 125.402344 22.355469 123.96875 23.261719 122.242188 23.261719 "
       style=" stroke:none;fill-rule:nonzero;fill:rgb(96.183777%,59.115601%,5.870056%);fill-opacity:1;" />
    <path
       id="path36"
       d="M 130.496094 16.800781 L 130.496094 23.191406 L 128.484375 23.191406 L 128.484375 16.800781 L 126.472656 16.800781 L 126.472656 15.003906 L 132.511719 15.003906 L 132.511719 16.800781 L 130.496094 16.800781 "
       style=" stroke:none;fill-rule:nonzero;fill:rgb(96.183777%,59.115601%,5.870056%);fill-opacity:1;" />
    <path
       id="path38"
       d="M 136.199219 18.109375 L 135.464844 20.296875 L 136.890625 20.296875 Z M 137.800781 23.191406 L 137.421875 21.972656 L 134.902344 21.972656 L 134.5 23.191406 L 132.394531 23.191406 L 135.371094 15.003906 L 136.925781 15.003906 L 139.902344 23.191406 L 137.800781 23.191406 "
       style=" stroke:none;fill-rule:nonzero;fill:rgb(96.183777%,59.115601%,5.870056%);fill-opacity:1;" />
    <path
       id="path40"
       d="M 140.964844 23.191406 L 140.964844 15.003906 L 142.976562 15.003906 L 142.976562 21.398438 L 146.414062 21.398438 L 146.414062 23.191406 L 140.964844 23.191406 "
       style=" stroke:none;fill-rule:nonzero;fill:rgb(96.183777%,59.115601%,5.870056%);fill-opacity:1;" />
    <path
       id="path42"
       d="M 150.4375 16.800781 L 150.4375 23.191406 L 148.425781 23.191406 L 148.425781 16.800781 L 146.410156 16.800781 L 146.410156 15.003906 L 152.449219 15.003906 L 152.449219 16.800781 L 150.4375 16.800781 "
       style=" stroke:none;fill-rule:nonzero;fill:rgb(96.183777%,59.115601%,5.870056%);fill-opacity:1;" />
    <path
       id="path44"
       d="M 153.851562 23.191406 L 153.851562 15.003906 L 159.417969 15.003906 L 159.417969 16.800781 L 155.863281 16.800781 L 155.863281 18.167969 L 158.902344 18.167969 L 158.902344 19.960938 L 155.863281 19.960938 L 155.863281 21.398438 L 159.417969 21.398438 L 159.417969 23.191406 L 153.851562 23.191406 "
       style=" stroke:none;fill-rule:nonzero;fill:rgb(96.183777%,59.115601%,5.870056%);fill-opacity:1;" />
    <path
       id="path46"
       d="M 164.226562 16.808594 L 163.089844 16.808594 L 163.089844 18.46875 L 164.226562 18.46875 C 164.777344 18.46875 165.101562 18.0625 165.101562 17.636719 C 165.101562 17.214844 164.777344 16.808594 164.226562 16.808594 Z M 165.214844 23.191406 L 163.765625 20.144531 L 163.089844 20.144531 L 163.089844 23.191406 L 161.074219 23.191406 L 161.074219 15.003906 L 164.316406 15.003906 C 166.136719 15.003906 167.113281 16.292969 167.113281 17.636719 C 167.113281 18.753906 166.421875 19.457031 165.777344 19.777344 L 167.550781 23.191406 L 165.214844 23.191406 "
       style=" stroke:none;fill-rule:nonzero;fill:rgb(96.183777%,59.115601%,5.870056%);fill-opacity:1;" />
  </g>
</svg>
