<?xml version="1.0" encoding="UTF-8" standalone="no"?>
<svg
   xmlns:dc="http://purl.org/dc/elements/1.1/"
   xmlns:cc="http://creativecommons.org/ns#"
   xmlns:rdf="http://www.w3.org/1999/02/22-rdf-syntax-ns#"
   xmlns:svg="http://www.w3.org/2000/svg"
   xmlns="http://www.w3.org/2000/svg"
   height="107.8"
   width="238.21001"
   xml:space="preserve"
   viewBox="0 0 238.21 107.8"
   y="0px"
   x="0px"
   id="Ebene_2"
   version="1.1"><metadata
   id="metadata11"><rdf:RDF><cc:Work
       rdf:about=""><dc:format>image/svg+xml</dc:format><dc:type
         rdf:resource="http://purl.org/dc/dcmitype/StillImage" /><dc:title></dc:title></cc:Work></rdf:RDF></metadata><defs
   id="defs9" />
<style
   id="style2"
   type="text/css">
	.st0{fill:#F59C00;}
</style>
<path
   style="fill:#f59c00"
   id="path4"
   d="m 216.17,0 0.05,66.72 c 0,1.35 -1.1,2.45 -2.45,2.45 H 189.7 c 0,0 0,20.13 0,27.69 -6.85,-4.79 -11.44,-13.47 -12.85,-24.63 l -0.39,-3.06 H 24.44 c -1.35,0 -2.45,-1.1 -2.45,-2.45 V 0 H 15 v 66.72 c 0,5.21 4.24,9.44 9.44,9.44 0,0 140.37,0 145.94,0 2.63,14.65 10.37,25.42 21.55,29.78 l 4.77,1.86 c 0,0 0,-26.17 0,-31.63 4.83,0 17.07,0 17.07,0 5.21,0 9.44,-4.24 9.44,-9.44 V 0 Z"
   class="st0" />
</svg>